<?xml version="1.0" encoding="utf-8"?>
<!-- Generator: Adobe Illustrator 27.8.1, SVG Export Plug-In . SVG Version: 6.00 Build 0)  -->
<svg version="1.1" id="Layer_1" xmlns="http://www.w3.org/2000/svg" xmlns:xlink="http://www.w3.org/1999/xlink" x="0px" y="0px"
	 viewBox="0 0 409.02 409.02" style="enable-background:new 0 0 409.02 409.02;" xml:space="preserve">
<style type="text/css">
	
		.st0{clip-path:url(#SVGID_00000095308122776158124050000017492431741851607182_);fill-rule:evenodd;clip-rule:evenodd;fill:#3663DE;}
	
		.st1{clip-path:url(#SVGID_00000095308122776158124050000017492431741851607182_);fill-rule:evenodd;clip-rule:evenodd;fill:#253439;}
</style>
<g>
	<defs>
		<rect id="SVGID_1_" x="61.75" y="61.75" width="285.52" height="285.52"/>
	</defs>
	<clipPath id="SVGID_00000168811402208032749520000000391719334485255340_">
		<use xlink:href="#SVGID_1_"  style="overflow:visible;"/>
	</clipPath>
	
		<polygon style="clip-path:url(#SVGID_00000168811402208032749520000000391719334485255340_);fill-rule:evenodd;clip-rule:evenodd;fill:#3663DE;" points="
		323.71,144.22 323.71,334.79 347.27,334.79 347.27,95.7 323.71,114.42 236.39,181.64 229.46,187.18 216.98,196.88 207.97,203.81 
		205.2,201.74 132.43,144.91 132.43,175.4 187.88,219.06 205.2,232.23 207.97,234.31 227.38,219.06 229.46,217.68 236.39,212.13 
		255.79,196.88 	"/>
	
		<polygon style="clip-path:url(#SVGID_00000168811402208032749520000000391719334485255340_);fill-rule:evenodd;clip-rule:evenodd;fill:#3663DE;" points="
		97.09,118.57 97.09,334.79 121.35,334.79 121.35,122.73 205.2,187.88 205.2,157.38 121.35,92.93 97.09,74.22 	"/>
	
		<polygon style="clip-path:url(#SVGID_00000168811402208032749520000000391719334485255340_);fill-rule:evenodd;clip-rule:evenodd;fill:#253439;" points="
		61.75,121.35 61.75,334.79 85.31,334.79 85.31,109.56 61.75,90.85 	"/>
	
		<polygon style="clip-path:url(#SVGID_00000168811402208032749520000000391719334485255340_);fill-rule:evenodd;clip-rule:evenodd;fill:#253439;" points="
		205.2,282.82 289.06,218.37 289.06,334.79 312.62,334.79 312.62,169.16 289.06,187.88 205.2,253.02 	"/>
</g>
</svg>
